<?xml version="1.0" encoding="UTF-8" standalone="no"?>
<svg
   xmlns:dc="http://purl.org/dc/elements/1.1/"
   xmlns:cc="http://creativecommons.org/ns#"
   xmlns:rdf="http://www.w3.org/1999/02/22-rdf-syntax-ns#"
   xmlns:svg="http://www.w3.org/2000/svg"
   xmlns="http://www.w3.org/2000/svg"
   width="1080"
   height="1080"
   viewBox="0 0 285.75001 285.75001"
   version="1.1"
   id="svg8">
  <defs
     id="defs2">
    <marker
       style="overflow:visible"
       id="Arrow1Mend"
       refX="0"
       refY="0"
       orient="auto">
      <path
         transform="matrix(-0.4,0,0,-0.4,-4,0)"
         style="fill:#fa8f00;fill-opacity:1;fill-rule:evenodd;stroke:#fa8f00;stroke-width:1.00000003pt;stroke-opacity:1"
         d="M 0,0 5,-5 -12.5,0 5,5 Z"
         id="path5322" />
    </marker>
    <marker
       style="overflow:visible"
       id="Arrow1Mend-4"
       refX="0"
       refY="0"
       orient="auto">
      <path
         transform="matrix(-0.4,0,0,-0.4,-4,0)"
         style="fill:#fa8f00;fill-opacity:1;fill-rule:evenodd;stroke:#fa8f00;stroke-width:1.00000003pt;stroke-opacity:1"
         d="M 0,0 5,-5 -12.5,0 5,5 Z"
         id="path5322-5" />
    </marker>
  </defs>
  <metadata
     id="metadata5">
    <rdf:RDF>
      <cc:Work
         rdf:about="">
        <dc:format>image/svg+xml</dc:format>
        <dc:type
           rdf:resource="http://purl.org/dc/dcmitype/StillImage" />
        <dc:title></dc:title>
      </cc:Work>
    </rdf:RDF>
  </metadata>
  <rect
     style="fill:#c9ebfb;fill-opacity:1;stroke:none;stroke-width:18.2091732;stroke-linecap:round;stroke-miterlimit:4;stroke-dasharray:none;stroke-opacity:1;paint-order:markers stroke fill"
     id="rect7624"
     width="285.75"
     height="285.75"
     x="0.0084436871"
     y="-0.0035707499" />
  <g
     id="g152"
     transform="matrix(1.4552084,0,0,1.4552084,353.40658,-315.79146)" />
  <g
     id="g154"
     transform="matrix(1.4552084,0,0,1.4552084,353.40658,-315.79146)" />
  <g
     id="g156"
     transform="matrix(1.4552084,0,0,1.4552084,353.40658,-315.79146)" />
  <g
     id="g158"
     transform="matrix(1.4552084,0,0,1.4552084,353.40658,-315.79146)" />
  <g
     id="g160"
     transform="matrix(1.4552084,0,0,1.4552084,353.40658,-315.79146)" />
  <g
     id="g162"
     transform="matrix(1.4552084,0,0,1.4552084,353.40658,-315.79146)" />
  <g
     id="g164"
     transform="matrix(1.4552084,0,0,1.4552084,353.40658,-315.79146)" />
  <g
     id="g166"
     transform="matrix(1.4552084,0,0,1.4552084,353.40658,-315.79146)" />
  <g
     id="g168"
     transform="matrix(1.4552084,0,0,1.4552084,353.40658,-315.79146)" />
  <g
     id="g170"
     transform="matrix(1.4552084,0,0,1.4552084,353.40658,-315.79146)" />
  <g
     id="g172"
     transform="matrix(1.4552084,0,0,1.4552084,353.40658,-315.79146)" />
  <g
     id="g174"
     transform="matrix(1.4552084,0,0,1.4552084,353.40658,-315.79146)" />
  <g
     id="g176"
     transform="matrix(1.4552084,0,0,1.4552084,353.40658,-315.79146)" />
  <g
     id="g178"
     transform="matrix(1.4552084,0,0,1.4552084,353.40658,-315.79146)" />
  <g
     id="g180"
     transform="matrix(1.4552084,0,0,1.4552084,353.40658,-315.79146)" />
  <flowRoot
     style="font-style:normal;font-variant:normal;font-weight:500;font-stretch:normal;font-size:40px;line-height:1.25;font-family:Roboto;-inkscape-font-specification:'Roboto Medium';letter-spacing:0px;word-spacing:0px;fill:#000000;fill-opacity:1;stroke:none"
     id="flowRoot1041"
     xml:space="preserve"
     transform="matrix(1.4552084,0,0,1.4552084,353.40658,-315.79146)"><flowRegion
       id="flowRegion1043"><rect
         y="550.21259"
         x="1147.9391"
         height="40.43428"
         width="3.9448078"
         id="rect1045" /></flowRegion><flowPara
       id="flowPara1047" /></flowRoot>  <g
     id="g2061"
     transform="matrix(0.52916668,0,0,0.52916668,9.5024532,7.3535496)" />
  <g
     id="g2063"
     transform="matrix(0.52916668,0,0,0.52916668,9.5024532,7.3535496)" />
  <g
     id="g2065"
     transform="matrix(0.52916668,0,0,0.52916668,9.5024532,7.3535496)" />
  <g
     id="g2067"
     transform="matrix(0.52916668,0,0,0.52916668,9.5024532,7.3535496)" />
  <g
     id="g2069"
     transform="matrix(0.52916668,0,0,0.52916668,9.5024532,7.3535496)" />
  <g
     id="g2071"
     transform="matrix(0.52916668,0,0,0.52916668,9.5024532,7.3535496)" />
  <g
     id="g2073"
     transform="matrix(0.52916668,0,0,0.52916668,9.5024532,7.3535496)" />
  <g
     id="g2075"
     transform="matrix(0.52916668,0,0,0.52916668,9.5024532,7.3535496)" />
  <g
     id="g2077"
     transform="matrix(0.52916668,0,0,0.52916668,9.5024532,7.3535496)" />
  <g
     id="g2079"
     transform="matrix(0.52916668,0,0,0.52916668,9.5024532,7.3535496)" />
  <g
     id="g2081"
     transform="matrix(0.52916668,0,0,0.52916668,9.5024532,7.3535496)" />
  <g
     id="g2083"
     transform="matrix(0.52916668,0,0,0.52916668,9.5024532,7.3535496)" />
  <g
     id="g2085"
     transform="matrix(0.52916668,0,0,0.52916668,9.5024532,7.3535496)" />
  <g
     id="g2087"
     transform="matrix(0.52916668,0,0,0.52916668,9.5024532,7.3535496)" />
  <g
     id="g2089"
     transform="matrix(0.52916668,0,0,0.52916668,9.5024532,7.3535496)" />
  <g
     style="fill:#294270;fill-opacity:1"
     transform="matrix(0.47625001,0,0,0.47625001,20.955002,23.376613)"
     id="g4317" />
  <g
     style="fill:#294270;fill-opacity:1"
     transform="matrix(0.47625001,0,0,0.47625001,20.955002,23.376613)"
     id="g4319" />
  <g
     style="fill:#294270;fill-opacity:1"
     transform="matrix(0.47625001,0,0,0.47625001,20.955002,23.376613)"
     id="g4321" />
  <g
     style="fill:#294270;fill-opacity:1"
     transform="matrix(0.47625001,0,0,0.47625001,20.955002,23.376613)"
     id="g4323" />
  <g
     style="fill:#294270;fill-opacity:1"
     transform="matrix(0.47625001,0,0,0.47625001,20.955002,23.376613)"
     id="g4325" />
  <g
     style="fill:#294270;fill-opacity:1"
     transform="matrix(0.47625001,0,0,0.47625001,20.955002,23.376613)"
     id="g4327" />
  <g
     style="fill:#294270;fill-opacity:1"
     transform="matrix(0.47625001,0,0,0.47625001,20.955002,23.376613)"
     id="g4329" />
  <g
     style="fill:#294270;fill-opacity:1"
     transform="matrix(0.47625001,0,0,0.47625001,20.955002,23.376613)"
     id="g4331" />
  <g
     style="fill:#294270;fill-opacity:1"
     transform="matrix(0.47625001,0,0,0.47625001,20.955002,23.376613)"
     id="g4333" />
  <g
     style="fill:#294270;fill-opacity:1"
     transform="matrix(0.47625001,0,0,0.47625001,20.955002,23.376613)"
     id="g4335" />
  <g
     style="fill:#294270;fill-opacity:1"
     transform="matrix(0.47625001,0,0,0.47625001,20.955002,23.376613)"
     id="g4337" />
  <g
     style="fill:#294270;fill-opacity:1"
     transform="matrix(0.47625001,0,0,0.47625001,20.955002,23.376613)"
     id="g4339" />
  <g
     style="fill:#294270;fill-opacity:1"
     transform="matrix(0.47625001,0,0,0.47625001,20.955002,23.376613)"
     id="g4341" />
  <g
     style="fill:#294270;fill-opacity:1"
     transform="matrix(0.47625001,0,0,0.47625001,20.955002,23.376613)"
     id="g4343" />
  <g
     style="fill:#294270;fill-opacity:1"
     transform="matrix(0.47625001,0,0,0.47625001,20.955002,23.376613)"
     id="g4345" />
  <g
     style="fill:#294270;fill-opacity:1"
     transform="matrix(0.47625001,0,0,0.47625001,21.5604,23.376612)"
     id="g5133">
    <g
       style="fill:#294270;fill-opacity:1"
       id="g5131">
      <path
         style="fill:#294270;fill-opacity:1"
         id="path5129"
         d="m 509.071,102.929 -100,-100 C 407.196,1.054 404.652,0 402,0 H 10 C 4.477,0 0,4.477 0,10 v 492 c 0,5.522 4.477,10 10,10 h 492 c 5.523,0 10,-4.478 10,-10 V 110 c 0,-2.652 -1.054,-5.196 -2.929,-7.071 z M 412,34.142 477.858,100 H 412 Z M 492,492 H 20 V 20 h 372 v 90 c 0,5.523 4.477,10 10,10 h 90 z" />
    </g>
  </g>
  <g
     style="fill:#294270;fill-opacity:1"
     transform="matrix(0.47625001,0,0,0.47625001,21.5604,23.376612)"
     id="g5139">
    <g
       style="fill:#294270;fill-opacity:1"
       id="g5137">
      <path
         style="fill:#294270;fill-opacity:1"
         id="path5135"
         d="m 459,177 c -5.523,0 -10,4.477 -10,10 V 449 H 63 V 63 h 301.333 c 5.523,0 10,-4.477 10,-10 0,-5.523 -4.477,-10 -10,-10 H 53 c -5.523,0 -10,4.477 -10,10 v 406 c 0,5.522 4.477,10 10,10 h 406 c 5.523,0 10,-4.478 10,-10 V 187 c 0,-5.523 -4.477,-10 -10,-10 z" />
    </g>
  </g>
  <g
     style="fill:#294270;fill-opacity:1"
     transform="matrix(0.47625001,0,0,0.47625001,21.5604,23.376612)"
     id="g5145">
    <g
       style="fill:#294270;fill-opacity:1"
       id="g5143">
      <path
         style="fill:#294270;fill-opacity:1"
         id="path5141"
         d="M 413,311 H 333 V 197 h 80 c 5.523,0 10,-4.477 10,-10 0,-5.523 -4.477,-10 -10,-10 H 333 V 87.667 c 0,-5.523 -4.477,-10 -10,-10 -5.523,0 -10,4.477 -10,10 V 177 H 199 V 87.667 c 0,-5.523 -4.477,-10 -10,-10 -5.523,0 -10,4.477 -10,10 V 177 h -47 c -5.523,0 -10,4.477 -10,10 0,5.523 4.477,10 10,10 h 47 V 311 H 99 c -5.523,0 -10,4.478 -10,10 0,5.522 4.477,10 10,10 h 80 v 91.937 c 0,5.522 4.477,10 10,10 5.523,0 10,-4.478 10,-10 V 331 h 114 v 91.937 c 0,5.522 4.477,10 10,10 5.523,0 10,-4.478 10,-10 V 331 h 80 c 5.523,0 10,-4.478 10,-10 0,-5.522 -4.477,-10 -10,-10 z m -100,0 H 199 V 197 h 114 z" />
    </g>
  </g>
  <g
     style="fill:#294270;fill-opacity:1"
     transform="matrix(0.47625001,0,0,0.47625001,21.5604,23.376612)"
     id="g5151">
    <g
       style="fill:#294270;fill-opacity:1"
       id="g5149">
      <path
         style="fill:#294270;fill-opacity:1"
         id="path5147"
         d="m 259.827,74.928 c -3.735,-1.547 -8.037,-0.692 -10.897,2.167 l -20.543,20.542 c -3.905,3.905 -3.906,10.237 0,14.142 3.906,3.907 10.238,3.905 14.142,0 l 3.472,-3.472 V 155.5 c -0.001,5.523 4.476,10 9.999,10 5.523,0 10,-4.477 10,-10 V 84.167 c 0,-4.044 -2.437,-7.691 -6.173,-9.239 z" />
    </g>
  </g>
  <g
     style="fill:#294270;fill-opacity:1"
     transform="matrix(0.47625001,0,0,0.47625001,21.5604,23.376612)"
     id="g5157">
    <g
       style="fill:#294270;fill-opacity:1"
       id="g5155">
      <path
         style="fill:#294270;fill-opacity:1"
         id="path5153"
         d="m 144.952,281.667 h -32.119 c -4.319,0 -7.833,-3.515 -7.833,-7.834 0,-4.319 3.514,-7.833 7.833,-7.833 h 14.286 c 15.347,0 27.833,-12.486 27.833,-27.833 0,-15.347 -12.486,-27.833 -27.833,-27.833 H 95 c -5.523,0 -10,4.477 -10,10 0,5.523 4.477,10 10,10 h 32.12 c 4.319,0 7.833,3.514 7.833,7.833 0,4.319 -3.514,7.833 -7.833,7.833 H 112.834 C 97.486,246 85,258.485 85,273.833 c 0,15.348 12.486,27.834 27.833,27.834 h 32.119 c 5.523,0 10,-4.478 10,-10 0,-5.522 -4.477,-10 -10,-10 z" />
    </g>
  </g>
  <g
     style="fill:#294270;fill-opacity:1"
     transform="matrix(0.47625001,0,0,0.47625001,21.5604,23.376612)"
     id="g5163">
    <g
       style="fill:#294270;fill-opacity:1"
       id="g5161">
      <path
         style="fill:#294270;fill-opacity:1"
         id="path5159"
         d="m 263.143,380.5 h -22.12 v -15.667 h 39.954 c 5.523,0 10,-4.478 10,-10 0,-5.522 -4.477,-10 -10,-10 h -49.953 c -5.523,0 -10,4.478 -10,10 V 390.5 c 0,5.522 4.477,10 10,10 h 32.12 c 4.319,0 7.833,3.514 7.833,7.833 0,4.319 -3.514,7.834 -7.833,7.834 h -32.12 c -5.523,0 -10,4.478 -10,10 0,5.522 4.477,10 10,10 h 32.12 c 15.348,0 27.833,-12.486 27.833,-27.834 0,-15.348 -12.486,-27.833 -27.834,-27.833 z" />
    </g>
  </g>
  <g
     style="fill:#294270;fill-opacity:1"
     transform="matrix(0.47625001,0,0,0.47625001,21.5604,23.376612)"
     id="g5169">
    <g
       style="fill:#294270;fill-opacity:1"
       id="g5167">
      <path
         style="fill:#294270;fill-opacity:1"
         id="path5165"
         d="m 413,210.334 c -5.523,0 -10,4.477 -10,10 V 246 h -24 v -25.667 c 0,-5.523 -4.477,-10 -10,-10 -5.523,0 -10,4.477 -10,10 V 256 c 0,5.522 4.477,10 10,10 h 34 v 25.667 c 0,5.522 4.477,10 10,10 5.523,0 10,-4.478 10,-10 v -71.333 c 0,-5.523 -4.477,-10 -10,-10 z" />
    </g>
  </g>
  <g
     style="fill:#294270;fill-opacity:1"
     transform="matrix(0.47625001,0,0,0.47625001,21.5604,23.376612)"
     id="g5175">
    <g
       style="fill:#294270;fill-opacity:1"
       id="g5173">
      <path
         style="fill:#294270;fill-opacity:1"
         id="path5171"
         d="M 466.07,142.93 C 464.21,141.07 461.63,140 459,140 c -2.63,0 -5.21,1.07 -7.07,2.93 -1.86,1.86 -2.93,4.44 -2.93,7.07 0,2.63 1.07,5.21 2.93,7.07 1.86,1.86 4.44,2.93 7.07,2.93 2.63,0 5.21,-1.07 7.07,-2.93 1.86,-1.86 2.93,-4.44 2.93,-7.07 0,-2.63 -1.07,-5.21 -2.93,-7.07 z" />
    </g>
  </g>
  <g
     style="fill:#294270;fill-opacity:1"
     transform="matrix(0.47625001,0,0,0.47625001,21.5604,23.376612)"
     id="g5181">
    <g
       style="fill:#294270;fill-opacity:1"
       id="g5179">
      <path
         style="fill:#294270;fill-opacity:1"
         id="path5177"
         d="M 102.07,179.93 C 100.21,178.07 97.63,177 95,177 c -2.63,0 -5.21,1.07 -7.07,2.93 -1.86,1.86 -2.93,4.44 -2.93,7.07 0,2.63 1.07,5.21 2.93,7.07 1.86,1.86 4.44,2.93 7.07,2.93 2.63,0 5.21,-1.07 7.07,-2.93 1.86,-1.86 2.93,-4.44 2.93,-7.07 0,-2.63 -1.07,-5.21 -2.93,-7.07 z" />
    </g>
  </g>
  <g
     style="fill:#294270;fill-opacity:1"
     transform="matrix(0.47625001,0,0,0.47625001,21.5604,23.376612)"
     id="g5183" />
  <g
     style="fill:#294270;fill-opacity:1"
     transform="matrix(0.47625001,0,0,0.47625001,21.5604,23.376612)"
     id="g5185" />
  <g
     style="fill:#294270;fill-opacity:1"
     transform="matrix(0.47625001,0,0,0.47625001,21.5604,23.376612)"
     id="g5187" />
  <g
     style="fill:#294270;fill-opacity:1"
     transform="matrix(0.47625001,0,0,0.47625001,21.5604,23.376612)"
     id="g5189" />
  <g
     style="fill:#294270;fill-opacity:1"
     transform="matrix(0.47625001,0,0,0.47625001,21.5604,23.376612)"
     id="g5191" />
  <g
     style="fill:#294270;fill-opacity:1"
     transform="matrix(0.47625001,0,0,0.47625001,21.5604,23.376612)"
     id="g5193" />
  <g
     style="fill:#294270;fill-opacity:1"
     transform="matrix(0.47625001,0,0,0.47625001,21.5604,23.376612)"
     id="g5195" />
  <g
     style="fill:#294270;fill-opacity:1"
     transform="matrix(0.47625001,0,0,0.47625001,21.5604,23.376612)"
     id="g5197" />
  <g
     style="fill:#294270;fill-opacity:1"
     transform="matrix(0.47625001,0,0,0.47625001,21.5604,23.376612)"
     id="g5199" />
  <g
     style="fill:#294270;fill-opacity:1"
     transform="matrix(0.47625001,0,0,0.47625001,21.5604,23.376612)"
     id="g5201" />
  <g
     style="fill:#294270;fill-opacity:1"
     transform="matrix(0.47625001,0,0,0.47625001,21.5604,23.376612)"
     id="g5203" />
  <g
     style="fill:#294270;fill-opacity:1"
     transform="matrix(0.47625001,0,0,0.47625001,21.5604,23.376612)"
     id="g5205" />
  <g
     style="fill:#294270;fill-opacity:1"
     transform="matrix(0.47625001,0,0,0.47625001,21.5604,23.376612)"
     id="g5207" />
  <g
     style="fill:#294270;fill-opacity:1"
     transform="matrix(0.47625001,0,0,0.47625001,21.5604,23.376612)"
     id="g5209" />
  <g
     style="fill:#294270;fill-opacity:1"
     transform="matrix(0.47625001,0,0,0.47625001,21.5604,23.376612)"
     id="g5211" />
</svg>
